<svg xmlns="http://www.w3.org/2000/svg" xmlns:xlink="http://www.w3.org/1999/xlink" viewBox="0 0 100 125" version="1.1" x="0px" y="0px"><title>10</title><desc>Created with Sketch.</desc><g stroke="none" stroke-width="1" fill="none" fill-rule="evenodd"><g fill="#0881a3"><path d="M77.1326241,67.3859715 L80.549879,87.2521059 C80.9218398,89.4149409 80.0808594,91.4763014 78.3004672,92.7661426 C76.5200751,94.0559837 74.2939966,94.2163096 72.3465457,93.1953075 L54.4545849,83.8156578 C51.6645849,82.3529776 48.3328202,82.3529776 45.5430162,83.8156578 L27.6510555,93.1953075 C25.7034084,94.2165051 23.4771339,94.0561792 21.6969378,92.7661426 C19.9165457,91.4763014 19.0757613,89.4149409 19.4479182,87.2521059 L22.864781,67.3859715 C23.3975261,64.2877719 22.3679182,61.1285703 20.1108594,58.9346477 L5.6361535,44.8652709 C4.06027115,43.3335723 3.52536919,41.173279 4.20536919,39.08611 C4.88536919,36.9991365 6.59144762,35.5648065 8.76929076,35.2492383 L28.7730162,32.3508595 C31.892428,31.8990143 34.5875261,29.9463625 35.9830162,27.1277556 L44.9288986,9.05277393 C45.9028202,7.08506721 47.7981143,5.91038697 49.9987025,5.91038697 C52.1994868,5.91038697 54.094781,7.08506721 55.0687025,9.05277393 L64.014781,27.1279511 C65.409879,29.9463625 68.104977,31.8990143 71.2243888,32.3508595 L91.2283104,35.2492383 C93.4059574,35.5648065 95.1120359,36.9991365 95.7922319,39.0863055 C96.4722319,41.173279 95.93733,43.3335723 94.3614476,44.8652709 L79.8865457,58.9346477 C77.6294868,61.1287658 76.599879,64.2879674 77.1326241,67.3859715 L77.1326241,67.3859715 Z M97.0988986,47.6656945 C99.7279182,45.1100611 100.656546,41.3598045 99.5220359,37.8779959 C98.3871339,34.3959919 95.4253692,31.906053 91.7920359,31.3795193 L71.7881143,28.4811405 C69.9465457,28.2142566 68.354977,27.061279 67.5312515,25.3972138 L58.5853692,7.32223218 C56.9604672,4.0392668 53.6702712,2 49.9987025,2 C46.32733,2 43.0369378,4.0392668 41.4120359,7.32223218 L32.4663496,25.3970183 C31.642428,27.061279 30.0510555,28.2142566 28.2090947,28.4811405 L8.20536919,31.3795193 C4.57203586,31.906053 1.61027115,34.3959919 0.475761346,37.8778004 C-0.658748458,41.359609 0.269682915,45.1100611 2.89870252,47.665499 L17.3736045,61.7348758 C18.7063496,63.0301914 19.3141927,64.8956415 18.9994868,66.7249206 L15.5826241,86.5912505 C14.9620359,90.1995601 16.4216437,93.7777597 19.3918398,95.9296456 C21.0702712,97.1455804 23.0339966,97.7634216 25.0110555,97.7634216 C26.5326241,97.7634216 28.062428,97.3974094 29.4757613,96.656391 L47.3677221,87.2769369 C49.0151731,86.4131324 50.982428,86.4133279 52.6296829,87.2767413 L70.5216437,96.656391 C73.7712515,98.3601466 77.6353692,98.0817271 80.6055653,95.9298411 C83.5757613,93.7777597 85.0357613,90.1995601 84.4151731,86.5912505 L80.9979182,66.7251161 C80.6832123,64.8958371 81.2912515,63.030387 82.6239966,61.7348758 L97.0988986,47.6656945 Z M49.6372123,71.8754672 C44.658781,71.8754672 40.0979966,70.0964367 36.556428,67.1423348 C39.6103496,63.2931454 44.3327025,60.8204122 49.6372123,60.8204122 C54.9419182,60.8204122 59.6642712,63.2931454 62.7181927,67.1423348 C59.1766241,70.0964367 54.6158398,71.8754672 49.6372123,71.8754672 M70.0376045,51.3459356 L29.2368202,51.3459356 C28.1540751,51.3459356 27.2760359,52.2212758 27.2760359,53.3011291 C27.2760359,65.5959723 37.3072123,75.5985466 49.6372123,75.5985466 C61.9672123,75.5985466 71.9983888,65.5959723 71.9983888,53.3011291 C71.9983888,52.2212758 71.1203496,51.3459356 70.0376045,51.3459356 M37.8215849,47.2826134 C40.6560947,47.2826134 42.9623692,44.9831104 42.9623692,42.1564872 C42.9623692,39.329864 40.6560947,37.0303609 37.8215849,37.0303609 C34.986879,37.0303609 32.6806045,39.329864 32.6806045,42.1564872 C32.6806045,44.9831104 34.986879,47.2826134 37.8215849,47.2826134 M61.4530555,47.2826134 C64.2875653,47.2826134 66.5938398,44.9831104 66.5938398,42.1564872 C66.5938398,39.329864 64.2875653,37.0303609 61.4530555,37.0303609 C58.6185457,37.0303609 56.3122712,39.329864 56.3122712,42.1564872 C56.3122712,44.9831104 58.6185457,47.2826134 61.4530555,47.2826134"/></g></g></svg>