<svg xmlns="http://www.w3.org/2000/svg" xmlns:xlink="http://www.w3.org/1999/xlink" viewBox="0 0 100 125" version="1.1" x="0px" y="0px"><title>15</title><desc>Created with Sketch.</desc><g stroke="none" stroke-width="1" fill="none" fill-rule="evenodd"><g fill="#0881a3"><path d="M77.1326241,67.5194122 L80.549879,87.4260898 C80.9218398,89.5933388 80.0808594,91.6589061 78.3004672,92.9513796 C76.5200751,94.2438531 74.2939966,94.4045061 72.3465457,93.3814204 L54.4545849,83.9826286 C51.6645849,82.5169633 48.3328202,82.5169633 45.5430162,83.9826286 L27.6510555,93.3814204 C25.7034084,94.404702 23.4771339,94.244049 21.6969378,92.9513796 C19.9165457,91.6589061 19.0757613,89.5933388 19.4479182,87.4260898 L22.864781,67.5194122 C23.3975261,64.4148898 22.3679182,61.2492408 20.1108594,59.0508408 L5.6361535,44.952751 C4.06027115,43.4179265 3.52536919,41.2532245 4.20536919,39.1617959 C4.88536919,37.0705633 6.59144762,35.6333061 8.76929076,35.3170939 L28.7730162,32.4128 C31.892428,31.9600327 34.5875261,30.0033959 35.9830162,27.1790367 L44.9288986,9.06716735 C45.9028202,7.0954449 47.7981143,5.91836735 49.9987025,5.91836735 C52.1994868,5.91836735 54.094781,7.0954449 55.0687025,9.06716735 L64.014781,27.1792327 C65.409879,30.0033959 68.104977,31.9600327 71.2243888,32.4128 L91.2283104,35.3170939 C93.4059574,35.6333061 95.1120359,37.0705633 95.7922319,39.1619918 C96.4722319,41.2532245 95.93733,43.4179265 94.3614476,44.952751 L79.8865457,59.0508408 C77.6294868,61.2494367 76.599879,64.4150857 77.1326241,67.5194122 L77.1326241,67.5194122 Z M97.0988986,47.7588898 C99.7279182,45.1980408 100.656546,41.4401306 99.5220359,37.9512163 C98.3871339,34.4621061 95.4253692,31.9670857 91.7920359,31.4394776 L71.7881143,28.5351837 C69.9465457,28.2677551 68.354977,27.1124245 67.5312515,25.4449633 L58.5853692,7.33309388 C56.9604672,4.04342857 53.6702712,2 49.9987025,2 C46.32733,2 43.0369378,4.04342857 41.4120359,7.33309388 L32.4663496,25.4447673 C31.642428,27.1124245 30.0510555,28.2677551 28.2090947,28.5351837 L8.20536919,31.4394776 C4.57203586,31.9670857 1.61027115,34.4621061 0.475761346,37.9510204 C-0.658748458,41.4399347 0.269682915,45.1980408 2.89870252,47.7586939 L17.3736045,61.8567837 C18.7063496,63.1547429 19.3141927,65.024 18.9994868,66.8570122 L15.5826241,86.7638857 C14.9620359,90.3795592 16.4216437,93.9650612 19.3918398,96.1213388 C21.0702712,97.3397551 23.0339966,97.9588571 25.0110555,97.9588571 C26.5326241,97.9588571 28.062428,97.592098 29.4757613,96.8495673 L47.3677221,87.4509714 C49.0151731,86.5854041 50.982428,86.5856 52.6296829,87.4507755 L70.5216437,96.8495673 C73.7712515,98.5568 77.6353692,98.2778122 80.6055653,96.1215347 C83.5757613,93.9650612 85.0357613,90.3795592 84.4151731,86.7638857 L80.9979182,66.8572082 C80.6832123,65.0241959 81.2912515,63.1549388 82.6239966,61.8567837 L97.0988986,47.7588898 Z M51.5979966,66.2430824 L57.1372123,66.2430824 L57.1372123,60.9342824 L51.5979966,60.9342824 L51.5979966,66.2430824 Z M42.1374084,66.2430824 L47.676428,66.2430824 L47.676428,60.9342824 L42.1374084,60.9342824 L42.1374084,66.2430824 Z M66.9242712,57.0159151 L59.0979966,57.0159151 L49.6372123,57.0159151 L40.1766241,57.0159151 L32.9842712,57.0159151 C31.9015261,57.0159151 31.0234868,57.8930416 31.0234868,58.9750988 C31.0234868,60.0571559 31.9015261,60.9342824 32.9842712,60.9342824 L38.2158398,60.9342824 L38.2158398,68.2022661 C38.2158398,69.2843233 39.093879,70.1614498 40.1766241,70.1614498 L49.6372123,70.1614498 L59.0979966,70.1614498 C60.1809378,70.1614498 61.058781,69.2843233 61.058781,68.2022661 L61.058781,60.9342824 L66.9242712,60.9342824 C68.0072123,60.9342824 68.8850555,60.0571559 68.8850555,58.9750988 C68.8850555,57.8930416 68.0072123,57.0159151 66.9242712,57.0159151 L66.9242712,57.0159151 Z M37.5175064,49.7260473 C40.3522123,49.7260473 42.6584868,47.4218514 42.6584868,44.5894596 C42.6584868,41.7570678 40.3522123,39.4528718 37.5175064,39.4528718 C34.6829966,39.4528718 32.3767221,41.7570678 32.3767221,44.5894596 C32.3767221,47.4218514 34.6829966,49.7260473 37.5175064,49.7260473 M61.148977,49.7260473 C63.9836829,49.7260473 66.2899574,47.4218514 66.2899574,44.5894596 C66.2899574,41.7570678 63.9836829,39.4528718 61.148977,39.4528718 C58.3144672,39.4528718 56.0081927,41.7570678 56.0081927,44.5894596 C56.0081927,47.4218514 58.3144672,49.7260473 61.148977,49.7260473"/></g></g></svg>