<svg xmlns="http://www.w3.org/2000/svg" xmlns:xlink="http://www.w3.org/1999/xlink" viewBox="0 0 100 125" version="1.1" x="0px" y="0px"><title>4</title><desc>Created with Sketch.</desc><g stroke="none" stroke-width="1" fill="none" fill-rule="evenodd"><g fill="#0881a3"><path d="M77.1326241,67.3859715 L80.549879,87.2521059 C80.9218398,89.4149409 80.0808594,91.4763014 78.3004672,92.7661426 C76.5200751,94.0559837 74.2939966,94.2163096 72.3465457,93.1953075 L54.4545849,83.8156578 C51.6645849,82.3529776 48.3328202,82.3529776 45.5430162,83.8156578 L27.6510555,93.1953075 C25.7034084,94.2163096 23.47733,94.0561792 21.6969378,92.7661426 C19.9165457,91.4763014 19.0757613,89.4149409 19.4479182,87.2521059 L22.864781,67.3859715 C23.3975261,64.2877719 22.3679182,61.1285703 20.1108594,58.9346477 L5.6361535,44.8652709 C4.06027115,43.3335723 3.52536919,41.173279 4.20536919,39.08611 C4.88536919,36.9991365 6.59144762,35.5648065 8.76929076,35.2492383 L28.7730162,32.3508595 C31.892428,31.8990143 34.5875261,29.9463625 35.9830162,27.1277556 L44.9288986,9.05277393 C45.9028202,7.08506721 47.7981143,5.91038697 49.9987025,5.91038697 C52.1994868,5.91038697 54.094781,7.08506721 55.0687025,9.05277393 L64.014781,27.1279511 C65.409879,29.9463625 68.104977,31.8990143 71.2243888,32.3508595 L91.2283104,35.2492383 C93.4059574,35.5648065 95.1120359,36.9991365 95.7922319,39.0863055 C96.4722319,41.173279 95.93733,43.3335723 94.3614476,44.8652709 L79.8865457,58.9346477 C77.6294868,61.1287658 76.599879,64.2879674 77.1326241,67.3859715 L77.1326241,67.3859715 Z M97.0988986,47.6656945 C99.7279182,45.1100611 100.656546,41.3598045 99.5220359,37.8779959 C98.3871339,34.3959919 95.4253692,31.906053 91.7920359,31.3795193 L71.7881143,28.4811405 C69.9465457,28.2142566 68.354977,27.061279 67.5312515,25.3972138 L58.5853692,7.32223218 C56.9604672,4.0392668 53.6702712,2 49.9987025,2 C46.32733,2 43.0369378,4.0392668 41.4120359,7.32223218 L32.4663496,25.3970183 C31.642428,27.061279 30.0510555,28.2142566 28.2090947,28.4811405 L8.20536919,31.3795193 C4.57203586,31.906053 1.61027115,34.3959919 0.475761346,37.8778004 C-0.658748458,41.359609 0.269682915,45.1100611 2.89870252,47.665499 L17.3736045,61.7348758 C18.7063496,63.0301914 19.3141927,64.8956415 18.9994868,66.7249206 L15.5826241,86.5912505 C14.9620359,90.1995601 16.4216437,93.7777597 19.3918398,95.9296456 C21.0702712,97.1455804 23.0339966,97.7634216 25.0110555,97.7634216 C26.5326241,97.7634216 28.062428,97.3974094 29.4757613,96.656391 L47.3677221,87.2769369 C49.0151731,86.4131324 50.982428,86.4133279 52.6296829,87.2767413 L70.5216437,96.656391 C73.7712515,98.3601466 77.6353692,98.0817271 80.6055653,95.9298411 C83.5757613,93.7777597 85.0357613,90.1995601 84.4151731,86.5912505 L80.9979182,66.7251161 C80.6832123,64.8958371 81.2912515,63.030387 82.6239966,61.7348758 L97.0988986,47.6656945 Z M37.528428,51.202835 C41.5156829,51.202835 44.7596045,47.9683585 44.7596045,43.9924725 C44.7596045,42.9126191 43.8815653,42.037279 42.7988202,42.037279 C41.715879,42.037279 40.8380359,42.9126191 40.8380359,43.9924725 C40.8380359,45.8119756 39.35333,47.2924481 37.528428,47.2924481 C35.7035261,47.2924481 34.2190162,45.8119756 34.2190162,43.9924725 C34.2190162,42.9126191 33.3411731,42.037279 32.2582319,42.037279 C31.1754868,42.037279 30.2974476,42.9126191 30.2974476,43.9924725 C30.2974476,47.9683585 33.5411731,51.202835 37.528428,51.202835 M67.6503888,42.0372008 C66.5676437,42.0372008 65.6896045,42.9125409 65.6896045,43.9923943 C65.6896045,45.8120929 64.2048986,47.2923699 62.3799966,47.2923699 C60.5550947,47.2923699 59.0705849,45.8120929 59.0705849,43.9923943 C59.0705849,42.9125409 58.1927417,42.0372008 57.1098006,42.0372008 C56.0270555,42.0372008 55.1490162,42.9125409 55.1490162,43.9923943 C55.1490162,47.9682802 58.3927417,51.2027568 62.3799966,51.2027568 C66.3672515,51.2027568 69.6111731,47.9682802 69.6111731,43.9923943 C69.6111731,42.9125409 68.7331339,42.0372008 67.6503888,42.0372008 M67.524781,57.495156 C66.4939966,57.1653149 65.3912515,57.7262599 65.0606633,58.7544961 C64.9388986,59.1187487 61.9383104,67.6752619 49.9543888,67.6752619 C37.9700751,67.6752619 34.969879,59.1187487 34.8514476,58.7652497 C34.5208594,57.7370134 33.4169378,57.1705939 32.3855653,57.500435 C31.3543888,57.8302762 30.7865457,58.9310501 31.1171339,59.9592864 C31.1567417,60.082268 32.1179182,63.0023495 34.9467417,65.8678811 C37.5214476,68.4763047 42.2153692,71.5856489 49.9543888,71.5856489 C57.6930162,71.5856489 62.3871339,68.4763047 64.9620359,65.8678811 C67.7906633,63.0023495 68.7518398,60.082268 68.7914476,59.9594819 C69.1220359,58.9310501 68.5561535,57.8249971 67.524781,57.495156"/></g></g></svg>